<svg aria-hidden="true" style="width:0;height:0;position:absolute;overflow:hidden" xmlns="http://www.w3.org/2000/svg"><defs><symbol id="menu" viewBox="0 0 32 32"><path d="M2.67 8c0-.35.14-.7.39-.94s.59-.4.94-.4h24a1.33 1.33 0 0 1 .94 2.28c-.25.25-.59.4-.94.4H4A1.33 1.33 0 0 1 2.67 8zm0 8.04A1.33 1.33 0 0 1 4 14.71h24a1.33 1.33 0 1 1 0 2.67H4a1.33 1.33 0 0 1-1.33-1.34zM4 22.75a1.34 1.34 0 0 0-.94 2.28c.25.25.59.39.94.39h24a1.33 1.33 0 1 0 0-2.67H4z"/></symbol><symbol id="rocket" viewBox="0 0 32 32"><path fill="#7eb101" style="fill:var(--color1,#7eb101)" d="m7.23 13.63 3.54 1.5a31.56 31.56 0 0 1 2.73-4.6L10.87 10l-3.64 3.63zm5.14 2.7 4.43 4.44c1.27-.58 2.46-1.24 3.57-1.97a18.3 18.3 0 0 0 6.66-7.67c.84-1.89 1.3-4.02 1.37-6.4-2.38.07-4.51.52-6.4 1.37a18.84 18.84 0 0 0-7.67 6.67 26.24 26.24 0 0 0-1.96 3.56zm7.63-3.2c-.44-.44-.67-1-.67-1.65s.23-1.2.67-1.65 1-.66 1.65-.66a2.25 2.25 0 0 1 2.32 2.31c0 .66-.23 1.2-.67 1.65s-1 .67-1.65.67-1.2-.22-1.65-.67zm-.5 12.77 3.63-3.63-.53-2.64c-.71.52-1.46 1-2.23 1.45s-1.57.89-2.37 1.29l1.5 3.53zM30.37 2.77c.2 3.02-.18 5.77-1.14 8.26s-2.53 4.84-4.73 7.04l-.13.13.73 3.67c.07.33.05.65-.05.96s-.27.6-.52.84l-5.7 5.73L16 22.8l-5.67-5.67-6.6-2.83 5.74-5.7c.24-.24.52-.42.83-.52s.63-.11.97-.05l3.66.74.07-.05a19.1 19.1 0 0 1 15.37-5.95zm-24.4 18.4c.77-.78 1.72-1.18 2.85-1.19s2.07.38 2.85 1.15c.77.78 1.16 1.73 1.15 2.85s-.4 2.08-1.19 2.85c-.57.58-1.47 1.06-2.68 1.44S5.92 29 3.5 29.33c.33-2.42.68-4.24 1.05-5.46s.84-2.12 1.42-2.7zm1.4 1.43c-.31.33-.6.86-.84 1.57s-.45 1.62-.63 2.73c1.11-.18 2.02-.39 2.73-.63s1.24-.52 1.57-.84c.42-.37.64-.85.65-1.41s-.18-1.06-.58-1.49a2.02 2.02 0 0 0-2.9.07z"/></symbol><symbol id="stars" viewBox="0 0 200 32"><path fill="#ffe550" style="fill:var(--color5,#ffe550)" d="M15.64 1.04a1.76 1.76 0 0 1 3.2 0l3.5 8.16c.25.58.82.98 1.46 1.03l9.08.71c1.54.12 2.17 1.98 1 2.96l-6.92 5.75c-.5.41-.71 1.06-.56 1.67l2.11 8.6c.36 1.46-1.27 2.6-2.6 1.83l-7.76-4.61a1.78 1.78 0 0 0-1.81 0l-7.78 4.6c-1.31.79-2.95-.36-2.59-1.82l2.11-8.6a1.66 1.66 0 0 0-.55-1.67L.6 13.9a1.68 1.68 0 0 1 .99-2.96l9.08-.7a1.73 1.73 0 0 0 1.46-1.04l3.5-8.16zm41.38 0a1.76 1.76 0 0 1 3.2 0l3.5 8.16c.25.58.81.98 1.46 1.03l9.08.71c1.54.12 2.16 1.98 1 2.96l-6.93 5.75c-.49.41-.7 1.06-.56 1.67l2.12 8.6c.36 1.46-1.28 2.6-2.6 1.83l-7.77-4.61a1.78 1.78 0 0 0-1.8 0l-7.78 4.6c-1.32.79-2.95-.36-2.6-1.82l2.12-8.6a1.66 1.66 0 0 0-.56-1.67L42 13.9c-1.18-.98-.55-2.84.99-2.96l9.08-.7a1.73 1.73 0 0 0 1.46-1.04l3.5-8.16zm41.38 0a1.76 1.76 0 0 1 3.2 0l3.5 8.16c.25.58.81.98 1.46 1.03l9.08.71c1.54.12 2.16 1.98 1 2.96l-6.93 5.75c-.49.41-.7 1.06-.56 1.67l2.12 8.6c.36 1.46-1.28 2.6-2.6 1.83l-7.77-4.61a1.78 1.78 0 0 0-1.8 0l-7.78 4.6c-1.32.79-2.95-.36-2.6-1.82l2.12-8.6a1.66 1.66 0 0 0-.56-1.67l-6.92-5.75c-1.17-.98-.54-2.84 1-2.96l9.07-.7A1.73 1.73 0 0 0 94.9 9.2l3.5-8.16zm41.38 0a1.76 1.76 0 0 1 3.2 0l3.5 8.16c.25.58.81.98 1.46 1.03l9.08.71c1.54.12 2.16 1.98 1 2.96l-6.93 5.75c-.49.41-.7 1.06-.55 1.67l2.1 8.6c.37 1.46-1.27 2.6-2.58 1.83l-7.78-4.61a1.78 1.78 0 0 0-1.8 0l-7.78 4.6c-1.31.79-2.95-.36-2.59-1.82l2.11-8.6a1.66 1.66 0 0 0-.56-1.67l-6.91-5.75c-1.18-.98-.55-2.84.99-2.96l9.07-.7a1.73 1.73 0 0 0 1.47-1.04l3.5-8.16zm41.38 0a1.76 1.76 0 0 1 3.2 0l3.5 8.16c.25.58.81.98 1.46 1.03l9.08.71c1.54.12 2.16 1.98 1 2.96l-6.93 5.75c-.49.41-.7 1.06-.55 1.67l2.1 8.6c.37 1.46-1.27 2.6-2.58 1.83l-7.78-4.61a1.78 1.78 0 0 0-1.8 0l-7.78 4.6c-1.32.79-2.95-.36-2.6-1.82l2.12-8.6a1.66 1.66 0 0 0-.56-1.67l-6.91-5.75c-1.18-.98-.55-2.84.99-2.96l9.08-.7a1.73 1.73 0 0 0 1.46-1.04l3.5-8.16z"/></symbol><symbol id="touch" viewBox="0 0 32 32"><path fill="#7eb101" style="fill:var(--color1,#7eb101)" d="M15.5 1.33c2.02 0 3.75.7 5.18 2.12s2.15 3.13 2.15 5.15a7.34 7.34 0 0 1-2.86 5.87h-1.14V12.8a5.36 5.36 0 0 0 .43-7.93 5.2 5.2 0 0 0-3.76-1.54c-1.47 0-2.72.51-3.77 1.54a5 5 0 0 0-1.57 3.73 5.41 5.41 0 0 0 2 4.2v2.4a7.33 7.33 0 0 1-4-6.6c0-2.02.72-3.74 2.15-5.15s3.17-2.12 5.19-2.12zm-1.27 28a2.75 2.75 0 0 1-1.93-.8l-6.87-6.86 1.87-1.94c.31-.3.66-.55 1.05-.71s.8-.2 1.22-.09l2.6.6V8.67c0-.94.32-1.73.96-2.37s1.44-.97 2.37-.97c.93 0 1.72.32 2.37.97s.97 1.43.97 2.37v5.73h.86a.6.6 0 0 1 .3.07l.3.13 4.94 2.4c.53.24.92.64 1.18 1.18s.33 1.1.22 1.69l-1.2 7.26c-.12.65-.43 1.17-.94 1.59s-1.09.61-1.73.61h-8.53zm-.26-2h9.36l1.44-8.3-6.1-3.03h-1.84V8.67c0-.4-.12-.73-.36-.97s-.57-.37-.97-.37-.72.12-.97.37a1.3 1.3 0 0 0-.36.97v13.3l-5.14-1.1-.76.76 5.7 5.7zm9.36 0z"/></symbol><symbol id="more" viewBox="0 0 34 32"><path d="M21.931 15.709a.902.902 0 0 1 0 1.277l-9.206 9.206a.902.902 0 0 1-1.277 0l-.426-.426a.902.902 0 0 1 0-1.277l8.142-8.142-8.142-8.142a.902.902 0 0 1 0-1.277l.426-.426a.902.902 0 0 1 1.277 0l9.206 9.206z"/></symbol><symbol id="less" viewBox="0 0 34 32"><path d="M12.35 15.709a.902.902 0 0 0 0 1.277l9.206 9.206a.902.902 0 0 0 1.277 0l.426-.426a.902.902 0 0 0 0-1.277l-8.142-8.142 8.142-8.142a.902.902 0 0 0 0-1.277l-.426-.426a.902.902 0 0 0-1.277 0l-9.206 9.206z"/></symbol><symbol id="close" viewBox="0 0 24 26"><path d="m13.18 12.05 4-4a.82.82 0 0 0-1.16-1.17l-4 3.96-4.03-4.02a.82.82 0 0 0-1.16 1.16l4.02 4.07-3.94 3.88a.82.82 0 1 0 1.16 1.16L12 13.17l3.9 3.9a.82.82 0 0 0 1.17-1.16l-3.9-3.86Z"/></symbol><symbol id="phone" viewBox="0 0 32 32"><path d="M22 20c-2 2-2 4-4 4s-4-2-6-4-4-4-4-6 2-2 4-4-4-8-6-8-6 6-6 6c0 4 4.1 12.1 8 16s12 8 16 8c0 0 6-4 6-6s-6-8-8-6z"/></symbol><symbol id="envelope" viewBox="0 0 32 32"><path d="M29 4H3a3 3 0 0 0-3 3v20a3 3 0 0 0 3 3h26a3 3 0 0 0 3-3V7a3 3 0 0 0-3-3zM12.46 17.2 4 23.79V8.1l8.46 9.09zM5.51 8H26.5L16 15.88 5.51 8zm7.28 9.55L16 21l3.21-3.45L25.79 26H6.21l6.58-8.45zm6.75-.35L28 8.1v15.7l-8.46-6.6z"/></symbol><symbol id="location" viewBox="0 0 32 32"><path d="M16 0A10 10 0 0 0 6 10c0 10 10 22 10 22s10-12 10-22A10 10 0 0 0 16 0zm0 16a6 6 0 1 1 0-12 6 6 0 0 1 0 12z"/></symbol><symbol id="pacman" viewBox="0 0 32 32"><path d="M30.15 5.59a16 16 0 1 0 0 20.82L20 16 30.15 5.59zM22 3.77a2.23 2.23 0 1 1 0 4.46 2.23 2.23 0 0 1 0-4.46z"/></symbol><symbol id="warning" viewBox="0 0 32 32"><path fill="none" stroke="#ff705d" style="stroke:var(--color1,#ff705d)" stroke-linejoin="round" stroke-linecap="round" stroke-width="2.29" d="M16 11.43v6.86m0 8a1.14 1.14 0 1 0 0-2.3 1.14 1.14 0 0 0 0 2.3z"/><path fill="none" stroke="#ff705d" style="stroke:var(--color1,#ff705d)" stroke-linejoin="round" stroke-linecap="round" stroke-width="2.29" d="M18.04 2.4a2.29 2.29 0 0 0-4.07 0L1.4 27.54a2.28 2.28 0 0 0 .1 2.23 2.29 2.29 0 0 0 1.93 1.09h25.14a2.28 2.28 0 0 0 1.95-1.1 2.3 2.3 0 0 0 .09-2.22L18.04 2.4z"/></symbol></defs></svg>